<?xml version="1.0" encoding="UTF-8"?><svg id="uuid-dead5b76-84cc-4da0-b3e1-360a4494d64d" xmlns="http://www.w3.org/2000/svg" viewBox="0 0 441.46 140"><defs><style>.uuid-db2e6575-b1d0-413f-8178-63af99c8d42d{fill:#3953a4;}.uuid-db2e6575-b1d0-413f-8178-63af99c8d42d,.uuid-09fb1cef-0e6a-4fd4-8a95-46c176337884,.uuid-c6bd04ff-1b36-4c9d-bf66-4d454442996d,.uuid-c102e556-805b-4615-b482-ad5bdc676613{stroke-width:0px;}.uuid-09fb1cef-0e6a-4fd4-8a95-46c176337884{fill:#fff;}.uuid-c6bd04ff-1b36-4c9d-bf66-4d454442996d{fill:#231f20;}.uuid-c102e556-805b-4615-b482-ad5bdc676613{fill:#a7c5e7;}</style></defs><rect class="uuid-09fb1cef-0e6a-4fd4-8a95-46c176337884" width="140" height="140" rx="20" ry="20"/><path class="uuid-db2e6575-b1d0-413f-8178-63af99c8d42d" d="m103.86,48.65c-.03.23-.07.46-.11.69-.69-14.6-11.61-27.15-26.61-29.39-17.09-2.55-33,9.23-35.55,26.31-1.28,8.55,1.03,16.78,5.78,23.22-8.53-7.44-13.2-18.95-11.41-30.97,2.8-18.75,20.27-31.69,39.02-28.89,18.76,2.8,31.69,20.28,28.89,39.03Z"/><path class="uuid-c6bd04ff-1b36-4c9d-bf66-4d454442996d" d="m89.91,76.71c-5.97,4.07-13.39,5.97-21.08,4.82-16.23-2.42-27.41-17.54-24.99-33.76,2.42-16.23,17.54-27.41,33.76-24.99,7.66,1.14,14.19,5.11,18.7,10.7-4.22-4.65-10.01-7.92-16.7-8.92-15.43-2.3-29.79,8.33-32.09,23.75s8.33,29.79,23.75,32.09c6.72,1,13.24-.45,18.65-3.7Z"/><path class="uuid-db2e6575-b1d0-413f-8178-63af99c8d42d" d="m35.95,91.35c.03-.23.07-.46.11-.69.69,14.6,11.61,27.15,26.61,29.39,17.09,2.55,33-9.23,35.55-26.31,1.28-8.55-1.03-16.78-5.78-23.22,8.53,7.44,13.2,18.95,11.41,30.97-2.8,18.75-20.27,31.69-39.02,28.89-18.76-2.8-31.69-20.28-28.89-39.03Z"/><path class="uuid-c6bd04ff-1b36-4c9d-bf66-4d454442996d" d="m49.9,63.29c5.97-4.07,13.39-5.97,21.08-4.82,16.23,2.42,27.41,17.54,24.99,33.76-2.42,16.23-17.54,27.41-33.76,24.99-7.66-1.14-14.19-5.11-18.7-10.7,4.22,4.65,10.01,7.92,16.7,8.92,15.43,2.3,29.79-8.33,32.09-23.75,2.3-15.42-8.33-29.79-23.75-32.09-6.72-1-13.24.45-18.65,3.7Z"/><path class="uuid-c102e556-805b-4615-b482-ad5bdc676613" d="m34.55,103.29c-17.03-16.78-17.55-48.21-.78-65.45.58-3.34,1.95-8.65,5.58-14.12,2.16-3.26,4.53-5.67,6.49-7.37C25.02,26.29,11.78,47.44,11.96,70.45c.18,22.79,13.49,43.56,34.15,53.29-1.8-1.62-3.86-3.8-5.79-6.64-3.59-5.27-5.09-10.42-5.77-13.81ZM92.37,15.18c2.17,1.75,4.96,4.4,7.49,8.15,3.63,5.38,5.07,10.58,5.7,13.85,16.96,16.86,17.31,48.31.45,65.46-.62,3.48-2.06,8.73-5.65,14.09-1.65,2.46-3.42,4.43-5.01,5.96,19.81-10.28,32.38-30.6,32.52-52.65.15-23.46-13.8-45.04-35.49-54.85Z"/><path class="uuid-09fb1cef-0e6a-4fd4-8a95-46c176337884" d="m155.78,101.77c-.43-7.82-.93-14.07-1.49-18.77,3.72,1.84,7.03,3.11,9.93,3.83s5.45,1.07,7.65,1.07c2.89,0,5.19-.47,6.9-1.4s2.57-2.32,2.57-4.16c0-.62-.08-1.22-.25-1.79-.17-.57-.48-1.21-.95-1.93-.47-.72-1.13-1.5-1.99-2.34l-9.37-9.03c-2.19-2.06-3.72-3.54-4.58-4.46-1.76-1.87-3.13-3.61-4.11-5.23s-1.69-3.26-2.14-4.93c-.45-1.67-.67-3.44-.67-5.31,0-2.24.36-4.43,1.07-6.58s1.78-4.16,3.21-6.03,3.31-3.49,5.67-4.84c2.35-1.36,4.87-2.29,7.56-2.78,2.68-.5,5.45-.74,8.3-.74,5.6,0,11.7.72,18.29,2.15.1,2.53.21,4.85.35,6.96.13,2.11.45,5.81.94,11.09-3.05-1.36-5.83-2.3-8.35-2.84-2.52-.53-4.69-.8-6.51-.8-2.58,0-4.73.53-6.44,1.6s-2.56,2.39-2.56,3.96c0,.73.13,1.45.4,2.15.26.7.76,1.51,1.49,2.45.73.94,1.69,1.96,2.88,3.08,1.19,1.12,3.07,2.78,5.62,4.98l3.58,3.14c1.06.96,2.2,2.11,3.43,3.47,1.23,1.36,2.29,2.7,3.18,4.02.9,1.32,1.58,2.53,2.06,3.63.48,1.1.84,2.21,1.07,3.33.23,1.12.35,2.32.35,3.61,0,3.3-.71,6.45-2.14,9.44-1.43,2.99-3.45,5.45-6.06,7.38-2.62,1.93-5.49,3.28-8.62,4.05s-6.44,1.16-9.92,1.16c-5.37,0-12.15-.86-20.33-2.59Z"/><path class="uuid-09fb1cef-0e6a-4fd4-8a95-46c176337884" d="m211.75,102.93c.46-4.48.81-8.17,1.04-11.07.23-2.9.45-6.61.67-11.12.21-4.51.4-9.51.57-14.97s.3-11.82.4-19.05c4.31.07,7.76.11,10.35.11,2.35,0,5.74-.04,10.15-.11-.57,6.94-.98,13.03-1.23,18.28-.25,5.25-.41,10.81-.48,16.68-.13,10.42-.2,17.51-.2,21.25-3.94-.07-7.33-.11-10.18-.11s-6.5.04-11.07.11Zm3.13-63.26c.2-4.37.3-7.82.3-10.35,0-.73-.02-1.72-.05-2.97,4.01.07,7.37.11,10.09.11,3.74,0,7.03-.04,9.84-.11-.1,1.14-.17,2.09-.2,2.86l-.3,6.83c-.07,1.03-.1,2.24-.1,3.63-3.28-.07-6.43-.11-9.45-.11s-6.5.04-10.14.11Z"/><path class="uuid-09fb1cef-0e6a-4fd4-8a95-46c176337884" d="m238.45,102.93l11.33-16.68,8.4-12.77-15.61-26.76c4.84.07,9,.11,12.48.11,4.38,0,7.97-.04,10.79-.11l5.27,12.61c.33.77.81,1.96,1.44,3.58,2.55-4.84,5.57-10.24,9.05-16.19,2.95.07,6.48.11,10.59.11,3.81,0,7.44-.04,10.89-.11l-7.95,11.56c-1.56,2.28-4.89,7.27-9.99,14.97,3.05,5.84,8.62,15.73,16.7,29.67-3.75-.07-7.44-.11-11.08-.11-4.44,0-8.42.04-11.93.11-2.15-5.14-3.8-8.94-4.95-11.4-1.14-2.46-2.11-4.71-2.91-6.77l-1.59,3.03c-.5.92-1.26,2.28-2.29,4.07l-6.31,11.07c-3.58-.07-7.06-.11-10.44-.11-3.91,0-7.87.04-11.88.11Z"/><path class="uuid-09fb1cef-0e6a-4fd4-8a95-46c176337884" d="m350.14,26.35c5.3,0,10.41.79,15.31,2.37,4.9,1.58,9.2,4.1,12.88,7.57,3.68,3.47,6.43,7.46,8.25,11.97,1.82,4.51,2.73,9.71,2.73,15.58,0,6.17-1,11.83-3.01,16.98-2.01,5.16-4.9,9.53-8.67,13.13-3.78,3.6-8.29,6.23-13.52,7.9-5.24,1.67-10.69,2.5-16.35,2.5s-10.97-.82-16.11-2.45-9.6-4.28-13.4-7.93c-3.79-3.65-6.49-7.72-8.08-12.19-1.59-4.48-2.39-9.45-2.39-14.92,0-8.04,1.68-15.09,5.04-21.17s8.35-10.82,14.96-14.23c6.61-3.41,14.06-5.12,22.34-5.12Zm-.89,16.57c-3.81,0-7.26,1.04-10.34,3.11-3.08,2.07-5.45,4.96-7.11,8.64-1.66,3.69-2.49,7.64-2.49,11.86,0,3.89.75,7.45,2.26,10.68,1.51,3.23,3.8,5.75,6.88,7.57,3.08,1.82,6.35,2.73,9.79,2.73,3.68,0,7.05-1.02,10.12-3.06s5.4-4.9,7.01-8.59c1.61-3.69,2.41-7.55,2.41-11.59s-.75-7.55-2.24-10.87c-1.49-3.32-3.68-5.9-6.56-7.73-2.88-1.83-6.13-2.75-9.74-2.75Z"/><path class="uuid-09fb1cef-0e6a-4fd4-8a95-46c176337884" d="m396.27,101.88c-.13-1.62-.27-3.31-.4-5.09-.13-1.78-.35-4.23-.65-7.35l-.4-3.96c3.21,1.4,5.97,2.43,8.28,3.11,2.31.68,4.45,1.02,6.4,1.02,1.62,0,2.93-.17,3.94-.5,1.01-.33,1.75-.81,2.21-1.43.46-.62.69-1.27.69-1.93,0-.59-.17-1.17-.52-1.73-.35-.57-1.13-1.35-2.35-2.34-2.71-2.2-5.1-4.2-7.16-6-2.07-1.8-3.62-3.39-4.66-4.79-1.04-1.39-1.83-2.9-2.38-4.51-.54-1.62-.82-3.28-.82-5.01,0-3.05.79-5.89,2.36-8.53,1.57-2.64,3.89-4.56,6.96-5.75,3.07-1.19,6.8-1.79,11.21-1.79s10.49.66,17.65,1.98l.8,15.42c-4.01-1.76-7.87-2.64-11.58-2.64-2.62,0-4.52.3-5.69.89-1.18.6-1.76,1.51-1.76,2.74,0,.4.07.79.2,1.16.13.37.37.75.72,1.16.35.4.78.82,1.29,1.24s1.76,1.4,3.75,2.95c1.99,1.54,3.55,2.81,4.67,3.8,1.86,1.62,3.27,3.11,4.25,4.49.98,1.38,1.72,2.84,2.24,4.4.51,1.56.77,3.2.77,4.93,0,2.61-.57,5-1.71,7.18s-2.87,4.01-5.17,5.48c-2.3,1.47-4.8,2.49-7.48,3.06-2.68.57-5.45.85-8.3.85-1.92,0-4.33-.18-7.23-.55-2.9-.37-6.27-1.01-10.12-1.93Z"/></svg>